<svg xmlns="http://www.w3.org/2000/svg" viewBox="0 0 15 20" fill="none">
  <path d="M13.958 7.20661L13.6429 16.7422C13.6161 17.5588 13.2721 18.3329 12.6839 18.9001C12.0957 19.4673 11.3096 19.7829 10.4925 19.78H4.50669C3.69012 19.7829 2.90451 19.4677 2.31639 18.9012C1.72828 18.3347 1.3839 17.5614 1.35626 16.7453L1.04122 7.20661C1.03432 6.99772 1.11069 6.79465 1.25353 6.64207C1.39636 6.48949 1.59395 6.3999 1.80284 6.39301C2.01172 6.38612 2.21479 6.46248 2.36737 6.60532C2.51995 6.74815 2.60954 6.94574 2.61643 7.15463L2.93148 16.6926C2.94717 17.0997 3.12003 17.485 3.41375 17.7674C3.70748 18.0498 4.09922 18.2074 4.50669 18.2071H10.4925C10.9005 18.2074 11.2927 18.0494 11.5865 17.7663C11.8803 17.4832 12.0528 17.0971 12.0677 16.6894L12.3828 7.15463C12.3897 6.94574 12.4793 6.74815 12.6318 6.60532C12.7844 6.46248 12.9875 6.38612 13.1964 6.39301C13.4053 6.3999 13.6029 6.48949 13.7457 6.64207C13.8885 6.79465 13.9649 6.99772 13.958 7.20661ZM15 4.03333C15 4.24222 14.917 4.44255 14.7693 4.59026C14.6216 4.73796 14.4213 4.82094 14.2124 4.82094H0.787608C0.578722 4.82094 0.37839 4.73796 0.230685 4.59026C0.0829797 4.44255 0 4.24222 0 4.03333C0 3.82445 0.0829797 3.62412 0.230685 3.47641C0.37839 3.32871 0.578722 3.24573 0.787608 3.24573H3.22919C3.47875 3.2464 3.71962 3.1542 3.90495 2.98707C4.09027 2.81995 4.20679 2.58985 4.23182 2.34155C4.28994 1.7591 4.56282 1.21915 4.99729 0.826908C5.43176 0.43466 5.9967 0.218212 6.58204 0.219735H8.41717C9.00251 0.218212 9.56745 0.43466 10.0019 0.826908C10.4364 1.21915 10.7093 1.7591 10.7674 2.34155C10.7924 2.58985 10.9089 2.81995 11.0943 2.98707C11.2796 3.1542 11.5205 3.2464 11.77 3.24573H14.2116C14.4205 3.24573 14.6208 3.32871 14.7685 3.47641C14.9162 3.62412 14.9992 3.82445 14.9992 4.03333H15ZM5.59911 3.24573H9.40168C9.29818 3.00924 9.23049 2.75866 9.20084 2.50222C9.18133 2.30808 9.09045 2.1281 8.94581 1.99714C8.80117 1.86618 8.61307 1.79357 8.41796 1.79338H6.58283C6.38771 1.79357 6.19961 1.86618 6.05498 1.99714C5.91034 2.1281 5.81946 2.30808 5.79995 2.50222C5.77004 2.7587 5.70288 3.00928 5.59911 3.24573ZM6.39223 15.1788V8.47229C6.39223 8.26341 6.30925 8.06308 6.16154 7.91537C6.01384 7.76767 5.81351 7.68469 5.60462 7.68469C5.39573 7.68469 5.1954 7.76767 5.0477 7.91537C4.89999 8.06308 4.81701 8.26341 4.81701 8.47229V15.1819C4.81701 15.3908 4.89999 15.5911 5.0477 15.7389C5.1954 15.8866 5.39573 15.9695 5.60462 15.9695C5.81351 15.9695 6.01384 15.8866 6.16154 15.7389C6.30925 15.5911 6.39223 15.3908 6.39223 15.1819V15.1788ZM10.1838 15.1788V8.47229C10.1838 8.26341 10.1008 8.06308 9.95309 7.91537C9.80538 7.76767 9.60505 7.68469 9.39617 7.68469C9.18728 7.68469 8.98695 7.76767 8.83924 7.91537C8.69154 8.06308 8.60856 8.26341 8.60856 8.47229V15.1819C8.60856 15.3908 8.69154 15.5911 8.83924 15.7389C8.98695 15.8866 9.18728 15.9695 9.39617 15.9695C9.60505 15.9695 9.80538 15.8866 9.95309 15.7389C10.1008 15.5911 10.1838 15.3908 10.1838 15.1819V15.1788Z" fill="#949494"/>
</svg>