<svg width="25" height="24" viewBox="0 0 25 24" fill="none" xmlns="http://www.w3.org/2000/svg">
<g id="Instagram">
<path id="Vector" d="M9.30001 3.19995C6.20441 3.19995 3.70001 5.70435 3.70001 8.79995V15.2C3.70001 18.2956 6.20441 20.8 9.30001 20.8H15.7C18.7956 20.8 21.3 18.2956 21.3 15.2V8.79995C21.3 5.70435 18.7956 3.19995 15.7 3.19995H9.30001ZM9.30001 3.99995H15.7C18.366 3.99995 20.5 6.13395 20.5 8.79995V15.2C20.5 17.866 18.366 20 15.7 20H9.30001C6.63401 20 4.50001 17.866 4.50001 15.2V8.79995C4.50001 6.13395 6.63401 3.99995 9.30001 3.99995Z" fill="black"/>
<path id="Vector_2" d="M12.5 7.6C10.0748 7.6 8.10001 9.5748 8.10001 12C8.10001 14.4252 10.0748 16.4 12.5 16.4C14.9252 16.4 16.9 14.4252 16.9 12C16.9 9.5748 14.9252 7.6 12.5 7.6ZM12.5 8.4C14.4928 8.4 16.1 10.0072 16.1 12C16.1 13.9928 14.4928 15.6 12.5 15.6C10.5072 15.6 8.90001 13.9928 8.90001 12C8.90001 10.0072 10.5072 8.4 12.5 8.4ZM17.3 6C16.642 6 16.1 6.542 16.1 7.2C16.1 7.858 16.642 8.4 17.3 8.4C17.958 8.4 18.5 7.858 18.5 7.2C18.5 6.542 17.958 6 17.3 6ZM17.3 6.8C17.5256 6.8 17.7 6.9744 17.7 7.2C17.7 7.4256 17.5256 7.6 17.3 7.6C17.0744 7.6 16.9 7.4256 16.9 7.2C16.9 6.9744 17.0744 6.8 17.3 6.8Z" fill="black"/>
</g>
</svg>
