<svg width="31" height="30" viewBox="0 0 31 30" fill="none" xmlns="http://www.w3.org/2000/svg">
<g id="instagram-threads 1">
<path id="Vector" d="M19.8893 14.2696C19.8031 14.2283 19.7156 14.1886 19.627 14.1505C19.4726 11.3061 17.9183 9.6776 15.3085 9.66094C15.2967 9.66086 15.2849 9.66086 15.2731 9.66086C13.7121 9.66086 12.4139 10.3272 11.6148 11.5397L13.0501 12.5243C13.647 11.6186 14.5839 11.4255 15.2738 11.4255C15.2818 11.4255 15.2898 11.4255 15.2977 11.4256C16.157 11.4311 16.8054 11.6809 17.2251 12.1681C17.5305 12.5228 17.7348 13.013 17.8359 13.6316C17.0741 13.5022 16.2501 13.4623 15.3693 13.5128C12.888 13.6558 11.2928 15.1029 11.4 17.1137C11.4543 18.1337 11.9625 19.0112 12.8307 19.5845C13.5648 20.0691 14.5103 20.306 15.4929 20.2524C16.7906 20.1812 17.8086 19.6861 18.5189 18.7808C19.0582 18.0933 19.3994 17.2024 19.55 16.0798C20.1684 16.453 20.6268 16.9442 20.8799 17.5346C21.3103 18.5382 21.3354 20.1875 19.9897 21.5321C18.8106 22.71 17.3933 23.2196 15.2514 23.2353C12.8754 23.2177 11.0785 22.4557 9.91022 20.9705C8.8162 19.5798 8.2508 17.571 8.22971 15C8.2508 12.4289 8.8162 10.4202 9.91022 9.02945C11.0785 7.54426 12.8754 6.78229 15.2514 6.76464C17.6446 6.78243 19.4728 7.54806 20.6858 9.04042C21.2806 9.77225 21.7291 10.6926 22.0247 11.7657L23.7067 11.3169C23.3483 9.99606 22.7845 8.85789 22.0172 7.91396C20.4621 6.0007 18.1877 5.02033 15.2572 5H15.2455C12.321 5.02026 10.0721 6.00435 8.56128 7.92493C7.21686 9.634 6.52337 12.0121 6.50007 14.993L6.5 15L6.50007 15.007C6.52337 17.9879 7.21686 20.366 8.56128 22.0751C10.0721 23.9956 12.321 24.9798 15.2455 25H15.2572C17.8573 24.982 19.69 24.3013 21.1998 22.7928C23.1751 20.8194 23.1156 18.3457 22.4646 16.8272C21.9975 15.7382 21.107 14.8538 19.8893 14.2696ZM15.4001 18.4903C14.3126 18.5516 13.1827 18.0634 13.127 17.0179C13.0857 16.2427 13.6787 15.3777 15.4668 15.2747C15.6716 15.2629 15.8725 15.2571 16.0699 15.2571C16.7194 15.2571 17.327 15.3202 17.8794 15.4409C17.6733 18.0141 16.4648 18.4319 15.4001 18.4903Z" fill="black"/>
</g>
</svg>
