<svg width="33" height="33" viewBox="0 0 33 33" fill="none" xmlns="http://www.w3.org/2000/svg">
<g id="Mastercard" clip-path="url(#clip0_44_884)">
<path id="Vector" d="M20.8267 24.2747H12.1733V8.724H20.8267V24.2747Z" fill="#FF5F00"/>
<path id="Vector_2" d="M12.7227 16.5001C12.7214 15.0025 13.0608 13.5243 13.7152 12.1773C14.3696 10.8304 15.3219 9.64993 16.5 8.72539C15.0411 7.57889 13.2892 6.86594 11.4443 6.66801C9.59941 6.47007 7.73606 6.79515 6.06719 7.60608C4.39832 8.41702 2.99125 9.68109 2.00678 11.2538C1.02231 12.8266 0.50016 14.6446 0.5 16.5001C0.500356 18.3553 1.02257 20.173 2.00697 21.7455C2.99137 23.3181 4.39826 24.582 6.0669 25.3929C7.73553 26.2037 9.59861 26.5289 11.4433 26.3312C13.2879 26.1335 15.0398 25.4208 16.4987 24.2747C15.321 23.3499 14.369 22.1694 13.7149 20.8225C13.0607 19.4755 12.7214 17.9975 12.7227 16.5001Z" fill="#EB001B"/>
<path id="Vector_3" d="M32.5 16.5001C32.4998 18.3555 31.9777 20.1735 30.9932 21.7463C30.0088 23.319 28.6017 24.5831 26.9328 25.394C25.2639 26.205 23.4006 26.53 21.5557 26.3321C19.7108 26.1342 17.9589 25.4212 16.5 24.2747C18.8 22.4641 20.2773 19.6547 20.2773 16.5001C20.2773 13.3454 18.8 10.5361 16.5 8.72539C17.9589 7.57889 19.7108 6.86594 21.5557 6.66801C23.4006 6.47007 25.2639 6.79515 26.9328 7.60608C28.6017 8.41702 30.0088 9.68109 30.9932 11.2538C31.9777 12.8266 32.4998 14.6446 32.5 16.5001Z" fill="#F79E1B"/>
</g>
<defs>
<clipPath id="clip0_44_884">
<rect width="32" height="32" fill="white" transform="translate(0.5 0.5)"/>
</clipPath>
</defs>
</svg>
