<svg width="33" height="32" viewBox="0 0 33 32" fill="none" xmlns="http://www.w3.org/2000/svg">
<g id="Star" clip-path="url(#clip0_180_724)">
<path id="Vector" d="M30.036 12.3518L20.98 11.1678L17.076 2.91176C16.852 2.43176 16.148 2.43176 15.924 2.91176L12.02 11.1678L2.96399 12.3518C2.41999 12.4158 2.22799 13.0558 2.61199 13.4398L9.23599 19.7118L7.57199 28.7038C7.47599 29.2158 8.01999 29.6318 8.49999 29.3758L16.5 25.0238L24.5 29.3758C24.98 29.6318 25.524 29.2158 25.428 28.7038L23.764 19.7118L30.388 13.4398C30.772 13.0558 30.548 12.4158 30.036 12.3518ZM22.612 19.0398C22.452 19.1998 22.388 19.3918 22.42 19.6158L23.924 27.6158L16.82 23.7118C16.724 23.6478 16.628 23.6478 16.5 23.6478C16.404 23.6478 16.276 23.6798 16.18 23.7118L9.07599 27.6158L10.58 19.6158C10.612 19.3918 10.548 19.1998 10.388 19.0398L4.46799 13.4398L12.532 12.3838C12.756 12.3518 12.948 12.2238 13.044 12.0318L16.5 4.67176L19.988 11.9998C20.084 12.1918 20.276 12.3198 20.468 12.3518L28.532 13.4398L22.612 19.0398Z" fill="black"/>
<path id="Vector_2" d="M347.38 -118.4V420.48H-223.5V-118.4H347.38ZM349.94 -120.96H-226.06V423.04H349.94V-120.96Z" fill="black"/>
</g>
<defs>
<clipPath id="clip0_180_724">
<rect width="32" height="32" fill="white" transform="translate(0.5)"/>
</clipPath>
</defs>
</svg>
