<svg width="31" height="30" viewBox="0 0 31 30" fill="none" xmlns="http://www.w3.org/2000/svg">
<g id="Tiktok">
<path id="Vector" d="M22.2887 10.9102L22.2898 14.1299C21.1185 14.1973 19.7322 13.8551 18.7273 13.2288L18.7238 17.5401C18.7461 19.1614 18.2211 20.7616 16.9355 21.8204C16.1234 22.4895 15.0816 22.8686 13.8998 22.885C10.4053 22.9325 8.10781 19.9301 8.8496 16.6172C9.50703 13.6852 11.8549 12.2883 14.8174 12.7559C14.8174 13.9067 14.8191 15.0569 14.8191 16.2071C13.6297 16.0325 12.299 16.0905 12.0787 17.5881C11.9193 18.6715 12.5568 19.5469 13.6988 19.5645C15.0687 19.5862 15.5 18.5561 15.5 17.3907V7.1145L18.7309 7.13091C18.7396 9.55962 19.8998 10.7684 22.2887 10.9102ZM18.0629 7.81704L16.192 7.80767V17.3907C16.192 18.9569 15.4514 20.2817 13.6883 20.2542C12.1262 20.2295 11.1752 18.9815 11.3949 17.4885C11.6035 16.067 12.7877 15.3452 14.1629 15.4272L14.1277 13.3536C11.8227 13.1186 10.015 14.5711 9.52285 16.7661C8.88124 19.6325 10.8664 22.237 13.8916 22.1954C14.9111 22.1813 15.8053 21.8584 16.4973 21.2877C17.6129 20.3696 18.0541 18.951 18.0348 17.5477C18.0348 15.6229 18.0377 13.6981 18.0394 11.7733C19.1914 12.8016 19.9801 13.2821 21.6002 13.4426L21.5996 11.5512C19.5049 11.3057 18.265 9.84321 18.0629 7.81704Z" fill="black"/>
<rect x="1" y="0.5" width="29" height="29" rx="14.5" stroke="black"/>
</g>
</svg>
