<svg width="21" height="20" viewBox="0 0 21 20" fill="none" xmlns="http://www.w3.org/2000/svg">
<g id="Twitter">
<g clip-path="url(#clip0_157_917)">
<g id="&#60;Group&#62;">
<path id="&#60;Path&#62;" d="M2.16667 2.91671C3.18183 4.16129 4.44956 5.17626 5.8861 5.89453C7.32263 6.61279 8.89524 7.018 10.5 7.08337C10.2833 6.20004 10.2667 3.80004 11.95 2.80004C12.6343 2.35021 13.4313 2.10187 14.25 2.08337C14.7842 2.08458 15.3125 2.19625 15.8015 2.41136C16.2905 2.62648 16.7298 2.94039 17.0917 3.33337C17.9688 3.14668 18.8119 2.82628 19.5917 2.38337C19.3179 3.2777 18.7247 4.04003 17.925 4.52504C18.6882 4.45901 19.4362 4.27341 20.1417 3.97504C19.6107 4.76623 18.9383 5.45271 18.1583 6.00004C18.75 11.3084 13.9917 17.9084 7.22501 17.9084C5.03029 17.9204 2.87233 17.3449 0.975006 16.2417C2.00944 16.3705 3.05922 16.2893 4.06153 16.0029C5.06384 15.7165 5.99808 15.2309 6.80834 14.575C5.91189 14.5223 5.04769 14.2217 4.31201 13.7067C3.57634 13.1917 2.99809 12.4826 2.64167 11.6584C3.47501 11.925 4.26667 12.0584 4.72501 11.6584C3.78873 11.4201 2.95375 10.8874 2.34312 10.1388C1.73249 9.39011 1.37851 8.46509 1.33334 7.50004C1.60865 7.76923 1.93441 7.98142 2.29192 8.12442C2.64943 8.26743 3.03166 8.33843 3.41667 8.33337C2.57814 7.74266 1.98695 6.86341 1.75631 5.86397C1.52567 4.86453 1.67179 3.81513 2.16667 2.91671Z" stroke="#303C42" stroke-linecap="round" stroke-linejoin="round"/>
</g>
</g>
</g>
<defs>
<clipPath id="clip0_157_917">
<rect x="0.5" width="20" height="20" fill="white"/>
</clipPath>
</defs>
</svg>
