<svg width="17" height="20" viewBox="0 0 17 20" fill="none" xmlns="http://www.w3.org/2000/svg">
<path d="M8.4775 9.67531C7.57089 9.67544 6.68461 9.40671 5.93073 8.90312C5.17686 8.39952 4.58925 7.68368 4.24222 6.84612C3.89519 6.00856 3.80433 5.0869 3.98112 4.1977C4.15792 3.3085 4.59443 2.4917 5.23545 1.85058C5.87648 1.20947 6.69322 0.772851 7.5824 0.595936C8.47158 0.41902 9.39325 0.509757 10.2309 0.856672C11.0685 1.20359 11.7844 1.7911 12.2881 2.5449C12.7918 3.29871 13.0606 4.18496 13.0606 5.09157C13.0595 6.30679 12.5763 7.47191 11.717 8.33127C10.8578 9.19062 9.69272 9.67399 8.4775 9.67531ZM8.4775 1.82969C7.83219 1.82957 7.20133 2.02082 6.66472 2.37926C6.12811 2.7377 5.70985 3.24723 5.46284 3.8434C5.21583 4.43957 5.15117 5.0956 5.27703 5.72852C5.4029 6.36144 5.71363 6.94282 6.16994 7.39913C6.62625 7.85543 7.20762 8.16617 7.84055 8.29203C8.47347 8.4179 9.1295 8.35324 9.72567 8.10623C10.3218 7.85922 10.8314 7.44096 11.1898 6.90435C11.5482 6.36774 11.7395 5.73688 11.7394 5.09157C11.7384 4.22677 11.3944 3.39767 10.7829 2.78617C10.1714 2.17466 9.3423 1.83068 8.4775 1.82969ZM15.7944 19.4922H1.16062L0.5 18.8316C0.5 17.7839 0.706344 16.7466 1.10725 15.7787C1.50816 14.8108 2.09578 13.9314 2.83656 13.1906C3.57733 12.4498 4.45677 11.8622 5.42464 11.4613C6.39252 11.0604 7.42988 10.8541 8.4775 10.8541C9.52512 10.8541 10.5625 11.0604 11.5304 11.4613C12.4982 11.8622 13.3777 12.4498 14.1184 13.1906C14.8592 13.9314 15.4468 14.8108 15.8477 15.7787C16.2487 16.7466 16.455 17.7839 16.455 18.8316L15.7944 19.4922ZM1.8525 18.1709H15.1025C14.9409 16.526 14.1732 15 12.9487 13.8898C11.7241 12.7796 10.1304 12.1647 8.4775 12.1647C6.82463 12.1647 5.23088 12.7796 4.00634 13.8898C2.7818 15 2.01406 16.526 1.8525 18.1709Z" fill="#231F20"/>
</svg>
